<?xml version="1.0" standalone="no"?>
<!DOCTYPE svg PUBLIC "-//W3C//DTD SVG 20010904//EN"
 "http://www.w3.org/TR/2001/REC-SVG-20010904/DTD/svg10.dtd">
<svg version="1.0" xmlns="http://www.w3.org/2000/svg"
 width="700.000000pt" height="700.000000pt" viewBox="0 0 700.000000 700.000000"
 preserveAspectRatio="xMidYMid meet">
<metadata>
Created by potrace 1.14, written by Peter Selinger 2001-2017
</metadata>
<g transform="translate(0.000000,700.000000) scale(0.100000,-0.100000)"
fill="#000000" stroke="none">
<path d="M0 3500 l0 -3500 3500 0 3500 0 0 3500 0 3500 -3500 0 -3500 0 0
-3500z m2572 1542 c212 -46 407 -126 570 -234 124 -82 312 -271 396 -398 156
-234 252 -517 283 -835 14 -147 6 -410 -19 -550 l-17 -100 -329 -3 -328 -2 7
27 c38 150 48 236 49 418 0 208 -13 306 -60 456 -52 165 -133 297 -250 410
-112 106 -212 166 -359 212 -131 41 -210 47 -641 47 l-404 0 0 -785 0 -785
-315 0 -315 0 0 1075 0 1076 818 -4 c785 -3 821 -4 914 -25z m3148 -1 c93 -28
221 -87 297 -137 142 -94 302 -281 372 -435 146 -323 129 -726 -45 -1021 -76
-131 -210 -275 -333 -357 -84 -57 -211 -116 -308 -144 -77 -21 -89 -22 -875
-25 l-798 -3 0 1076 0 1076 808 -3 807 -4 75 -23z m-4250 -2661 l0 -120 419 0
c461 0 523 6 672 60 96 35 173 77 251 136 l56 44 381 0 c210 0 381 -3 381 -8
0 -4 -19 -41 -43 -82 -202 -356 -569 -614 -995 -699 -176 -36 -307 -41 -1039
-41 l-713 0 0 415 0 415 315 0 315 0 0 -120z m3190 -295 l0 -415 -315 0 -315
0 0 415 0 415 315 0 315 0 0 -415z"/>
<path d="M4660 3995 l0 -496 418 3 417 3 70 34 c44 22 91 55 125 90 244 249
183 670 -118 818 l-76 38 -418 3 -418 3 0 -496z"/>
</g>
</svg>
